                    <svg class="author-photo-icon" xmlns="http://www.w3.org/2000/svg" width="123" height="85" viewBox="0 0 123 85" fill="none">
                        <path fill-rule="evenodd" clip-rule="evenodd" d="M121.586 27.8643C122.011 28.3973 122.229 29.058 122.229 29.7395L122.229 37.7832C122.229 53.7465 109.31 66.6874 93.3732 66.6874H45.8908C45.0728 66.6874 44.2867 67.0048 43.698 67.5726L27.0713 83.6105C25.0657 85.5451 21.72 84.1238 21.72 81.3372V67.642C21.72 66.2669 20.8229 65.0661 19.5506 64.5444C9.03018 60.2311 1.61874 49.8741 1.61874 37.7832C1.61874 37.4844 1.60995 36.8699 1.59889 36.0961C1.56516 33.7365 1.51027 29.896 1.61874 29.0145C3.3757 14.7367 15.7454 8.87891 30.4744 8.87891H93.3732C105.696 8.87891 118.599 24.1161 121.586 27.8643Z" fill="#893BF7" />
                        <path d="M122.229 37.7832H121.8V37.7832L122.229 37.7832ZM1.59889 36.0961L1.16993 36.1022L1.59889 36.0961ZM1.61874 29.0145L2.04454 29.0669L1.61874 29.0145ZM19.5506 64.5444L19.7134 64.1475L19.5506 64.5444ZM27.0713 83.6105L27.3691 83.9193L27.0713 83.6105ZM121.586 27.8643L121.922 27.5969L121.586 27.8643ZM121.8 37.7832L121.8 29.7395L122.658 29.7395L122.658 37.7832L121.8 37.7832ZM93.3732 66.2584C109.072 66.2584 121.8 53.5103 121.8 37.7832H122.658C122.658 53.9828 109.547 67.1164 93.3732 67.1164V66.2584ZM45.8908 66.2584H93.3732V67.1164H45.8908V66.2584ZM43.9958 67.8814L27.3691 83.9193L26.7734 83.3017L43.4001 67.2639L43.9958 67.8814ZM21.291 81.3372V67.642H22.149V81.3372H21.291ZM2.04775 37.7832C2.04775 49.6944 9.34872 59.898 19.7134 64.1475L19.3879 64.9414C8.71164 60.5641 1.18974 50.0538 1.18974 37.7832H2.04775ZM2.02785 36.09C2.03889 36.8617 2.04775 37.4805 2.04775 37.7832H1.18974C1.18974 37.4884 1.18102 36.8781 1.16993 36.1022L2.02785 36.09ZM2.04454 29.0669C1.99444 29.474 1.98008 30.6209 1.9845 31.9996C1.98887 33.3621 2.01099 34.9097 2.02785 36.09L1.16993 36.1022C1.15307 34.9229 1.13087 33.3704 1.12648 32.0023C1.12215 30.6505 1.13457 29.4364 1.19295 28.9621L2.04454 29.0669ZM30.4744 9.30792C23.1596 9.30792 16.4732 10.7636 11.4109 13.9554C6.36445 17.1373 2.90697 22.0583 2.04454 29.0669L1.19295 28.9621C2.08747 21.6928 5.69334 16.5461 10.9533 13.2296C16.1973 9.92313 23.0603 8.4499 30.4744 8.4499V9.30792ZM93.3732 9.30792H30.4744V8.4499H93.3732V9.30792ZM121.251 28.1317C119.765 26.2679 115.813 21.5469 110.706 17.2957C105.582 13.0306 99.3761 9.30792 93.3732 9.30792V8.4499C99.6936 8.4499 106.1 12.3458 111.255 16.6363C116.426 20.9407 120.42 25.7124 121.922 27.5969L121.251 28.1317ZM21.291 67.642C21.291 66.4604 20.5178 65.4046 19.3879 64.9414L19.7134 64.1475C21.128 64.7275 22.149 66.0734 22.149 67.642H21.291ZM27.3691 83.9193C25.0911 86.1166 21.291 84.5023 21.291 81.3372H22.149C22.149 83.7453 25.0402 84.9735 26.7734 83.3017L27.3691 83.9193ZM45.8908 67.1164C45.1839 67.1164 44.5046 67.3907 43.9958 67.8814L43.4001 67.2639C44.0688 66.6188 44.9617 66.2584 45.8908 66.2584V67.1164ZM121.8 29.7395C121.8 29.1495 121.611 28.5844 121.251 28.1317L121.922 27.5969C122.41 28.2101 122.658 28.9664 122.658 29.7395L121.8 29.7395Z" fill="black" />
                        <path fill-rule="evenodd" clip-rule="evenodd" d="M93.4008 1.08301C109.364 1.08301 122.305 14.0239 122.305 29.9873C122.305 45.9506 109.364 58.8915 93.4008 58.8915H45.7405C44.9241 58.8915 44.1394 59.2077 43.551 59.7736L26.8556 75.8318C24.8489 77.762 21.5076 76.3398 21.5076 73.5554V59.8562C21.5076 58.4797 20.6086 57.2778 19.3342 56.7574C8.78453 52.4494 1.35041 42.0865 1.35041 29.9873C1.35041 14.0239 14.2913 1.08301 30.2547 1.08301H93.4008Z" fill="#EADCFF" />
                        <path d="M19.3342 56.7574L19.172 57.1546L19.3342 56.7574ZM43.551 59.7736L43.8484 60.0828L43.551 59.7736ZM121.876 29.9873C121.876 14.2608 109.127 1.51202 93.4008 1.51202V0.653998C109.601 0.653998 122.734 13.787 122.734 29.9873H121.876ZM93.4008 58.4625C109.127 58.4625 121.876 45.7137 121.876 29.9873H122.734C122.734 46.1876 109.601 59.3205 93.4008 59.3205V58.4625ZM45.7405 58.4625H93.4008V59.3205H45.7405V58.4625ZM43.8484 60.0828L27.153 76.141L26.5583 75.5226L43.2536 59.4644L43.8484 60.0828ZM21.0786 73.5554V59.8562H21.9366V73.5554H21.0786ZM1.77942 29.9873C1.77942 41.9062 9.1025 52.1158 19.4964 56.3602L19.172 57.1546C8.46657 52.783 0.921402 42.2668 0.921402 29.9873H1.77942ZM30.2547 1.51202C14.5282 1.51202 1.77942 14.2608 1.77942 29.9873H0.921402C0.921402 13.787 14.0544 0.653998 30.2547 0.653998V1.51202ZM93.4008 1.51202H30.2547V0.653998H93.4008V1.51202ZM21.0786 59.8562C21.0786 58.6733 20.3038 57.6167 19.172 57.1546L19.4964 56.3602C20.9134 56.9389 21.9366 58.286 21.9366 59.8562H21.0786ZM27.153 76.141C24.8737 78.3334 21.0786 76.718 21.0786 73.5554H21.9366C21.9366 75.9616 24.824 77.1906 26.5583 75.5226L27.153 76.141ZM45.7405 59.3205C45.035 59.3205 44.3568 59.5937 43.8484 60.0828L43.2536 59.4644C43.9219 58.8216 44.8132 58.4625 45.7405 58.4625V59.3205Z" fill="black" />
                        <path d="M74.51 30.1487C74.51 34.9919 78.441 38.919 83.2911 38.919C88.1412 38.919 92.0722 34.9919 92.0722 30.1487C92.0722 25.3054 88.1412 21.3784 83.2911 21.3784C78.441 21.3784 74.51 25.3054 74.51 30.1487Z" fill="#D4BAFF" stroke="black" stroke-width="0.85802" />
                        <path d="M52.6362 30.1487C52.6362 34.9919 56.5672 38.919 61.4173 38.919C66.2674 38.919 70.1984 34.9919 70.1984 30.1487C70.1984 25.3054 66.2674 21.3784 61.4173 21.3784C56.5672 21.3784 52.6362 25.3054 52.6362 30.1487Z" fill="#D4BAFF" stroke="black" stroke-width="0.85802" />
                        <path d="M30.7618 30.1487C30.7618 34.9919 34.6927 38.919 39.5428 38.919C44.3929 38.919 48.3239 34.9919 48.3239 30.1487C48.3239 25.3054 44.3929 21.3784 39.5428 21.3784C34.6927 21.3784 30.7618 25.3054 30.7618 30.1487Z" fill="#D4BAFF" stroke="black" stroke-width="0.85802" />
                        <line y1="-0.42901" x2="7.84154" y2="-0.42901" transform="matrix(4.37626e-08 1 1 -4.36604e-08 44.845 59.1111)" stroke="black" stroke-width="0.85802" />
                    </svg>
