<svg width="32" height="32" viewBox="0 0 32 32" fill="none" xmlns="http://www.w3.org/2000/svg">
<path d="M11 14C11 13.4477 11.4477 13 12 13H20C20.5523 13 21 13.4477 21 14C21 14.5523 20.5523 15 20 15H12C11.4477 15 11 14.5523 11 14ZM12 17C11.4477 17 11 17.4477 11 18C11 18.5523 11.4477 19 12 19H20C20.5523 19 21 18.5523 21 18C21 17.4477 20.5523 17 20 17H12Z" fill="black"/>
<path fill-rule="evenodd" clip-rule="evenodd" d="M9 2C8.44772 2 8 2.44772 8 3V4H6C5.44772 4 5 4.44772 5 5V27C5 28.6569 6.34315 30 8 30H26C26.5523 30 27 29.5523 27 29V5C27 4.44772 26.5523 4 26 4H14V3C14 2.44772 13.5523 2 13 2H9ZM14 6V9C14 9.37877 13.786 9.72504 13.4472 9.89443C13.1084 10.0638 12.703 10.0273 12.4 9.8L11 8.75L9.6 9.8C9.29698 10.0273 8.89157 10.0638 8.55279 9.89443C8.214 9.72504 8 9.37877 8 9V6H7V24.1707C7.31278 24.0602 7.64936 24 8 24H25V6H14ZM10 7V4H12V7L11.6 6.7C11.2444 6.43333 10.7556 6.43333 10.4 6.7L10 7ZM8 28C7.44772 28 7 27.5523 7 27C7 26.4477 7.44772 26 8 26H25V28H8Z" fill="black"/>
</svg>
