<svg width="402" height="220" viewBox="0 0 402 220" fill="none" xmlns="http://www.w3.org/2000/svg">
<path d="M219.694 128.468L207.705 131.199L211.531 124.896L231.706 118.519L268.673 136.631L393.105 209.771C395.54 218.594 383.017 219.224 377.8 218.594C372.582 217.964 219.694 128.468 219.694 128.468Z" fill="black" stroke="black" stroke-width="0.510195"/>
<path d="M254.491 79.1527C254.491 86.8328 251.494 95.7054 248.167 104.164C247.359 106.216 246.534 108.24 245.729 110.214L245.659 110.386C244.833 112.413 244.028 114.389 243.29 116.283C241.833 120.019 240.626 123.46 240.007 126.392C231.183 135.242 218.613 141.129 204.148 144.804C189.644 148.489 173.264 149.942 156.916 149.942C141.108 149.942 123.856 146.734 108.322 141.406C92.7834 136.077 78.9965 128.638 70.099 120.201C63.8305 114.257 57.2269 103.662 55.4962 92.5711C54.6318 87.0322 54.9849 81.384 57.1867 76.1308C59.3485 70.973 63.303 66.1705 69.6901 62.2164C74.182 70.6487 76.7605 78.2533 79.0564 85.0243C79.2641 85.6369 79.4695 86.2426 79.6738 86.8416C82.1639 94.1419 84.498 100.458 88.8821 105.671C97.668 116.116 114.571 122.009 156.905 123.157C195.715 124.209 220.303 103.382 235.161 87.2685C238.328 83.8341 241.055 80.6108 243.382 77.8617C243.783 77.387 244.173 76.9264 244.551 76.4813C247.13 73.4439 249.137 71.159 250.67 69.9842C251.443 69.391 252.025 69.1387 252.452 69.1442C252.821 69.149 253.171 69.3528 253.492 69.9978C253.819 70.6565 254.073 71.7049 254.242 73.2301C254.41 74.7471 254.491 76.7024 254.491 79.1527Z" fill="black" stroke="black" stroke-width="0.765292"/>
<path d="M260.941 72.7027C260.941 88.2114 259.535 102.178 248.042 113.759C230.348 131.589 196.035 143.492 163.367 143.492C131.733 143.492 96.7555 130.647 78.9375 113.751C66.4241 101.885 65.7918 88.9674 65.7918 72.7027C65.7918 70.2499 65.8436 68.2726 65.9604 66.7184C66.0777 65.158 66.2589 64.0495 66.5068 63.3207C66.7613 62.5725 67.0396 62.3527 67.2613 62.3116C67.5187 62.2639 67.93 62.3994 68.5651 62.911C69.8071 63.9114 71.4933 66.0011 73.7732 68.8642C73.8751 68.9922 73.9781 69.1216 74.0823 69.2525C76.2935 72.0304 79.0157 75.4503 82.3431 79.1676C96.2877 94.7461 120.869 115.555 163.356 116.707C202.166 117.759 226.754 96.9325 241.612 80.8185C244.779 77.3841 247.506 74.1608 249.832 71.4117C250.234 70.937 250.624 70.4764 251.002 70.0314C253.581 66.994 255.588 64.7091 257.12 63.5342C257.894 62.9411 258.476 62.6887 258.903 62.6943C259.272 62.699 259.622 62.9029 259.942 63.5478C260.27 64.2066 260.524 65.2549 260.693 66.7801C260.861 68.2972 260.941 70.2524 260.941 72.7027Z" fill="#6439F5" stroke="black" stroke-width="0.765292"/>
<path fill-rule="evenodd" clip-rule="evenodd" d="M249.226 76.9972C248.585 84.2268 244.578 90.8521 238.199 96.572C238.246 96.2044 238.286 95.8352 238.319 95.4643C240.633 69.3618 207.469 45.0955 164.245 41.2641C146.882 39.725 130.536 41.7177 117.042 46.3452C113.907 47.4204 110.926 48.6378 108.122 49.9863C96.5538 55.5488 87.9976 63.3405 84.0684 72.5714C83.3697 69.5268 83.1371 66.4237 83.4145 63.2943C85.7283 37.1918 122.644 19.1375 165.867 22.9689C209.091 26.8003 251.54 50.8947 249.226 76.9972Z" fill="black"/>
<mask id="path-5-inside-1_720_10629" fill="white">
<path fill-rule="evenodd" clip-rule="evenodd" d="M163.366 126.018C217.466 126.018 261.323 97.808 261.323 63.0091C261.323 28.2101 217.466 0 163.366 0C109.266 0 65.4087 28.2101 65.4087 63.0091C65.4087 97.808 109.266 126.018 163.366 126.018ZM163.366 109.692C206.759 109.692 241.936 88.4486 241.936 62.2438C241.936 36.0389 206.759 14.7956 163.366 14.7956C119.973 14.7956 84.7957 36.0389 84.7957 62.2438C84.7957 88.4486 119.973 109.692 163.366 109.692Z"/>
</mask>
<path fill-rule="evenodd" clip-rule="evenodd" d="M163.366 126.018C217.466 126.018 261.323 97.808 261.323 63.0091C261.323 28.2101 217.466 0 163.366 0C109.266 0 65.4087 28.2101 65.4087 63.0091C65.4087 97.808 109.266 126.018 163.366 126.018ZM163.366 109.692C206.759 109.692 241.936 88.4486 241.936 62.2438C241.936 36.0389 206.759 14.7956 163.366 14.7956C119.973 14.7956 84.7957 36.0389 84.7957 62.2438C84.7957 88.4486 119.973 109.692 163.366 109.692Z" fill="#B29CFA"/>
<path d="M260.558 63.0091C260.558 80.0601 249.812 95.6025 232.218 106.92C214.633 118.231 190.292 125.253 163.366 125.253V126.783C190.541 126.783 215.179 119.7 233.046 108.207C250.906 96.719 262.089 80.757 262.089 63.0091H260.558ZM163.366 0.765292C190.292 0.765292 214.633 7.78679 232.218 19.0986C249.812 30.4156 260.558 45.958 260.558 63.0091H262.089C262.089 45.2611 250.906 29.2991 233.046 17.8113C215.179 6.31826 190.541 -0.765292 163.366 -0.765292V0.765292ZM66.174 63.0091C66.174 45.958 76.9197 30.4156 94.5138 19.0986C112.1 7.78679 136.441 0.765292 163.366 0.765292V-0.765292C136.191 -0.765292 111.553 6.31826 93.6857 17.8113C75.8262 29.2991 64.6434 45.2611 64.6434 63.0091H66.174ZM163.366 125.253C136.441 125.253 112.1 118.231 94.5138 106.92C76.9197 95.6025 66.174 80.0601 66.174 63.0091H64.6434C64.6434 80.757 75.8262 96.719 93.6857 108.207C111.553 119.7 136.191 126.783 163.366 126.783V125.253ZM241.17 62.2438C241.17 74.9742 232.622 86.6278 218.528 95.1395C204.447 103.643 184.947 108.927 163.366 108.927V110.457C185.178 110.457 204.962 105.12 219.319 96.4497C233.661 87.7886 242.701 75.7182 242.701 62.2438H241.17ZM163.366 15.5609C184.947 15.5609 204.447 20.845 218.528 29.348C232.622 37.8597 241.17 49.5133 241.17 62.2438H242.701C242.701 48.7693 233.661 36.6989 219.319 28.0378C204.962 19.3679 185.178 14.0303 163.366 14.0303V15.5609ZM85.561 62.2438C85.561 49.5133 94.1093 37.8597 108.204 29.348C122.284 20.845 141.785 15.5609 163.366 15.5609V14.0303C141.554 14.0303 121.769 19.3679 107.413 28.0378C93.0707 36.6989 84.0305 48.7693 84.0305 62.2438H85.561ZM163.366 108.927C141.785 108.927 122.284 103.643 108.204 95.1395C94.1093 86.6278 85.561 74.9742 85.561 62.2438H84.0305C84.0305 75.7182 93.0707 87.7886 107.413 96.4497C121.769 105.12 141.554 110.457 163.366 110.457V108.927Z" fill="black" mask="url(#path-5-inside-1_720_10629)"/>
<path fill-rule="evenodd" clip-rule="evenodd" d="M241.937 62.2438C241.937 65.3855 241.432 68.4559 240.467 71.4269C233.384 49.6172 201.558 33.1627 163.368 33.1627C125.177 33.1627 93.3505 49.6175 86.268 71.4276C85.3031 68.4564 84.7974 65.3857 84.7974 62.2438C84.7974 36.0389 119.974 14.7957 163.367 14.7957C206.76 14.7957 241.937 36.0389 241.937 62.2438Z" fill="#6439F5"/>
<mask id="path-8-inside-2_720_10629" fill="white">
<path fill-rule="evenodd" clip-rule="evenodd" d="M237.468 109.666C237.35 109.574 237.225 109.49 237.094 109.414C234.418 107.87 230.083 110.373 227.41 115.004C224.802 119.522 224.74 124.396 227.223 126.066L227.193 126.116L386.832 216.323L396.9 199.917L237.468 109.666Z"/>
</mask>
<path fill-rule="evenodd" clip-rule="evenodd" d="M237.468 109.666C237.35 109.574 237.225 109.49 237.094 109.414C234.418 107.87 230.083 110.373 227.41 115.004C224.802 119.522 224.74 124.396 227.223 126.066L227.193 126.116L386.832 216.323L396.9 199.917L237.468 109.666Z" fill="#6439F5"/>
<path d="M237.468 109.666L236.999 110.271L237.043 110.305L237.091 110.332L237.468 109.666ZM237.094 109.414L236.711 110.077V110.077L237.094 109.414ZM227.41 115.004L226.747 114.621L227.41 115.004ZM227.223 126.066L227.885 126.448L228.243 125.829L227.65 125.431L227.223 126.066ZM227.193 126.116L226.531 125.733L226.144 126.402L226.817 126.782L227.193 126.116ZM386.832 216.323L386.456 216.989L387.099 217.352L387.485 216.723L386.832 216.323ZM396.9 199.917L397.552 200.317L397.966 199.641L397.277 199.251L396.9 199.917ZM237.938 109.062C237.792 108.949 237.638 108.845 237.476 108.752L236.711 110.077C236.812 110.135 236.908 110.2 236.999 110.271L237.938 109.062ZM237.476 108.752C235.802 107.785 233.736 108.152 231.868 109.231C229.98 110.321 228.138 112.211 226.747 114.621L228.073 115.386C229.354 113.166 231.017 111.489 232.633 110.556C234.27 109.612 235.71 109.5 236.711 110.077L237.476 108.752ZM226.747 114.621C225.389 116.974 224.676 119.448 224.642 121.591C224.609 123.71 225.249 125.661 226.796 126.701L227.65 125.431C226.714 124.801 226.143 123.48 226.173 121.615C226.201 119.774 226.823 117.552 228.073 115.386L226.747 114.621ZM226.56 125.683L226.531 125.733L227.856 126.499L227.885 126.448L226.56 125.683ZM226.817 126.782L386.456 216.989L387.209 215.656L227.57 125.45L226.817 126.782ZM387.485 216.723L397.552 200.317L396.247 199.517L386.18 215.922L387.485 216.723ZM397.277 199.251L237.845 109L237.091 110.332L396.523 200.583L397.277 199.251Z" fill="black" mask="url(#path-8-inside-2_720_10629)"/>
<path d="M396.517 200.032C397.67 200.697 398.305 202.158 398.297 204.11C398.289 206.049 397.639 208.389 396.33 210.657C395.022 212.925 393.32 214.658 391.645 215.635C389.959 216.619 388.376 216.799 387.223 216.134C386.071 215.468 385.436 214.008 385.444 212.056C385.452 210.117 386.101 207.776 387.41 205.509C388.719 203.241 390.421 201.508 392.096 200.531C393.782 199.547 395.364 199.367 396.517 200.032Z" fill="#9274F8" stroke="black" stroke-width="0.765292"/>
</svg>
