<svg width="103" height="101" viewBox="0 0 103 101" fill="none" xmlns="http://www.w3.org/2000/svg">
<g id="Group 627400">
<g id="Group 627399">
<path id="Vector 7" d="M35.6317 40.6571L32.8032 35.8486H39.5916L35.6317 40.6571Z" fill="black" stroke="black" stroke-width="0.61875"/>
<g id="Group">
<path id="Vector" d="M100.517 10.2265L95.21 3.57446V8.40749H12.0263C8.70409 8.40749 6.01323 11.0984 6.01323 14.4206V69.463H1.46582L7.1933 76.6261C8.29069 78.0993 10.042 79.0614 12.0188 79.0614H35.9284L51.7654 98.7693C52.968 100.265 55.2455 100.265 56.4556 98.7693L72.2926 79.0614H96.2022C99.5244 79.0614 102.215 76.3705 102.215 73.0483V14.4206C102.215 12.7895 101.561 11.3088 100.509 10.2265H100.517Z" fill="#893BF7" stroke="black" stroke-width="0.773438" stroke-miterlimit="10"/>
<path id="Vector_2" d="M90.1964 0.891113H6.0131C2.69086 0.891113 0 3.58197 0 6.90421V65.5319C0 68.8541 2.69086 71.545 6.0131 71.545H29.9227L45.7597 91.2529C46.9623 92.7487 49.2397 92.7487 50.4499 91.2529L66.2869 71.545H90.1964C93.5187 71.545 96.2095 68.8541 96.2095 65.5319V6.90421C96.2095 3.58197 93.5187 0.891113 90.1964 0.891113Z" fill="#B486FF" stroke="black" stroke-width="0.773438" stroke-miterlimit="10"/>
<g id="Group_2">
<path id="Vector_3" d="M84.3637 11.3408H11.6053C10.9452 11.3408 10.4102 11.8759 10.4102 12.5359V59.874C10.4102 60.5341 10.9452 61.0691 11.6053 61.0691H84.3637C85.0238 61.0691 85.5588 60.5341 85.5588 59.874V12.5359C85.5588 11.8759 85.0238 11.3408 84.3637 11.3408Z" fill="white" stroke="black" stroke-width="0.773438" stroke-miterlimit="10"/>
<g id="Vector_4">
<path d="M85.5588 61.0693L50.8557 31.53C49.1119 30.2898 46.7593 30.2898 45.0155 31.53L10.4102 61.0017" fill="white"/>
<path d="M85.5588 61.0693L50.8557 31.53C49.1119 30.2898 46.7593 30.2898 45.0155 31.53L10.4102 61.0017" stroke="black" stroke-width="0.773438" stroke-miterlimit="10"/>
</g>
<g id="Vector_5">
<path d="M85.213 11.6944L50.9233 40.888C49.1795 42.1282 46.8269 42.1282 45.0831 40.888L10.7559 11.6719" fill="white"/>
<path d="M85.213 11.6944L50.9233 40.888C49.1795 42.1282 46.8269 42.1282 45.0831 40.888L10.7559 11.6719" stroke="black" stroke-width="0.773438" stroke-miterlimit="10"/>
</g>
</g>
<path id="Vector_6" d="M66.2871 71.5449L72.3002 79.0613" stroke="black" stroke-width="0.773438" stroke-miterlimit="10"/>
<path id="Vector_7" d="M50.7651 90.8848L56.7782 98.4011" stroke="black" stroke-width="0.773438" stroke-miterlimit="10"/>
<path id="Vector_8" d="M91.2114 71.5449L97.2245 79.0613" stroke="black" stroke-width="0.773438" stroke-miterlimit="10"/>
<path id="Vector_9" d="M96.2095 65.5471L102.223 73.0635" stroke="black" stroke-width="0.773438" stroke-miterlimit="10"/>
<path id="Vector_10" d="M84.4834 11.4141H11.7249C11.0649 11.4141 10.5298 11.9491 10.5298 12.6092V59.9473C10.5298 60.6073 11.0649 61.1424 11.7249 61.1424H84.4834C85.1434 61.1424 85.6785 60.6073 85.6785 59.9473V12.6092C85.6785 11.9491 85.1434 11.4141 84.4834 11.4141Z" stroke="black" stroke-width="0.773438" stroke-miterlimit="10"/>
</g>
</g>
<path id="Vector 2111" d="M72.2734 78.9284L67.3623 72.7249C67.0434 72.3221 67.3259 71.7287 67.8396 71.7222L90.7195 71.4325C90.9102 71.4301 91.0913 71.5158 91.2105 71.6647L96.405 78.1578C96.7291 78.5629 96.4406 79.1631 95.9218 79.1631H72.7585C72.5694 79.1631 72.3907 79.0766 72.2734 78.9284Z" fill="black" stroke="black" stroke-width="0.928125"/>
</g>
</svg>
