<svg width="392" height="172" viewBox="0 0 392 172" fill="none" xmlns="http://www.w3.org/2000/svg">
<path d="M8.17155 108.32L11.8602 107.155L132.615 126.375H130.285L113.589 131.811L90.6809 138.994L51.0764 147.924L48.9409 143.653L8.17155 108.32Z" fill="black" stroke="black" stroke-width="0.582419"/>
<path d="M83.3035 75.7043L7.97734 102.301L20.2081 116.668L45.4463 139.382L53.9884 143.459L64.0837 141.712L102.717 136.47L134.362 125.792L95.7285 90.8472L83.3035 75.7043Z" fill="#FFF7B3" stroke="black" stroke-width="0.582419"/>
<line x1="26.161" y1="110.855" x2="79.3553" y2="91.8294" stroke="black" stroke-width="0.388279"/>
<line x1="34.7032" y1="118.62" x2="87.8975" y2="99.5947" stroke="black" stroke-width="0.388279"/>
<path d="M102.912 136.664L45.0583 139.188L53.9887 143.459L63.1133 141.712L102.912 136.664Z" fill="#F2DB00"/>
<path d="M83.3035 75.7043L7.97734 102.301L20.2081 116.668L45.4463 139.382L53.9884 143.459L63.8896 141.712L102.717 136.47L134.362 125.792L95.7285 90.8472L83.3035 75.7043Z" stroke="black" stroke-width="0.582419"/>
<path d="M61.936 76.1421L73.0019 73.23L136.874 55.3691L183.273 97.6916L188.709 103.127L156.676 109.34L109.5 117.106C109.5 117.106 105.812 113.223 99.5991 112.252L61.936 76.1421Z" fill="black"/>
<path d="M62.7124 69.153L140.951 46.6328L152.793 62.7464L190.262 100.215L157.647 109.34L103.595 110.816C102.644 110.899 101.697 110.928 100.764 110.893L75.3315 85.4607L62.7124 69.153Z" fill="#BFF8D7"/>
<path d="M157.647 109.34L190.262 100.215L152.793 62.7464L140.951 46.6328L62.7124 69.153L75.3315 85.4607L100.764 110.893M157.647 109.34L121.925 104.098C118.301 106.493 108.995 111.204 100.764 110.893M157.647 109.34L100.764 110.893" stroke="black" stroke-width="0.582419"/>
<path d="M156.093 109.34C143.927 107.334 122.119 101.186 122.119 101.186C122.119 101.186 118.43 106.622 113.383 108.369C110.249 109.835 109.254 109.729 105.811 110.699L156.093 109.34Z" fill="#28E67B"/>
<path d="M157.647 109.34L190.262 100.215L152.793 62.7464L140.951 46.6328L62.7124 69.153L75.3315 85.4607L100.764 110.893M157.647 109.34L100.764 110.893M157.647 109.34L139.203 105.845L122.119 101.38C118.042 107.399 108.995 111.204 100.764 110.893" stroke="black" stroke-width="0.582419"/>
<line x1="77.8019" y1="76.3436" x2="140.315" y2="58.4828" stroke="black" stroke-width="0.388279"/>
<line x1="83.2379" y1="83.3326" x2="145.751" y2="65.4718" stroke="black" stroke-width="0.388279"/>
<line x1="88.6761" y1="90.321" x2="135.658" y2="77.5078" stroke="black" stroke-width="0.388279"/>
<path fill-rule="evenodd" clip-rule="evenodd" d="M8.05953 79.86C8.02493 79.8383 7.98983 79.8172 7.95425 79.7967C5.91828 78.6215 3.05034 79.7782 1.54853 82.3802C0.0467149 84.9821 0.47973 88.0441 2.5157 89.2192C2.66861 89.3075 2.82622 89.3826 2.98759 89.4449L15.9718 96.6427L15.9829 96.6245L30.3016 104.446L30.3015 104.446L135.334 164.815L135.335 164.812L135.334 164.815L161.963 171.98L161.966 171.98L161.966 171.98L161.961 171.976L156.007 166.021L155.851 166.276L147.204 158.21C148.055 155.507 147.696 153.033 146.126 152.127C144.95 151.449 143.352 151.799 141.819 152.895L142.517 151.613L38.2195 92.1069C38.0453 91.9185 37.8465 91.7579 37.6233 91.6291C37.3776 91.4872 37.1134 91.3903 36.8352 91.3358L21.1347 82.6421C21.0741 82.5995 21.0115 82.5595 20.9469 82.5222C20.5964 82.3199 20.2085 82.209 19.7959 82.182L9.87099 76.4958L8.05953 79.86Z" fill="black"/>
<path fill-rule="evenodd" clip-rule="evenodd" d="M13.0425 74.0378C12.9101 73.9177 12.7657 73.8118 12.6093 73.7215C10.5733 72.5464 7.27159 74.4546 5.23469 77.9836C3.1978 81.5126 3.19704 85.3261 5.23301 86.5013C5.36272 86.5761 5.49756 86.6385 5.63689 86.6887L5.63679 86.6889L18.6897 93.9248L26.2093 81.5813L13.0425 74.0378Z" fill="#FEA8FF"/>
<path d="M13.0425 74.0378L12.912 74.1816L12.9277 74.1957L12.946 74.2062L13.0425 74.0378ZM12.6093 73.7215L12.5122 73.8897V73.8897L12.6093 73.7215ZM5.23469 77.9836L5.40284 78.0807L5.23469 77.9836ZM5.23301 86.5013L5.13596 86.6694H5.13596L5.23301 86.5013ZM5.63689 86.6887L5.80783 86.7807L5.9146 86.5824L5.70272 86.506L5.63689 86.6887ZM5.63679 86.6889L5.46585 86.5968L5.37494 86.7657L5.54266 86.8587L5.63679 86.6889ZM18.6897 93.9248L18.5955 94.0946L18.7585 94.1849L18.8555 94.0258L18.6897 93.9248ZM26.2093 81.5813L26.3751 81.6823L26.4788 81.5119L26.3058 81.4128L26.2093 81.5813ZM13.1729 73.894C13.0305 73.7648 12.8749 73.6507 12.7063 73.5534L12.5122 73.8897C12.6565 73.9729 12.7897 74.0706 12.912 74.1816L13.1729 73.894ZM12.7063 73.5534C11.6028 72.9164 10.189 73.1322 8.82519 73.9204C7.4562 74.7116 6.09891 76.098 5.06655 77.8866L5.40284 78.0807C6.40737 76.3403 7.71938 75.008 9.01947 74.2566C10.3247 73.5023 11.5798 73.3515 12.5122 73.8897L12.7063 73.5534ZM5.06655 77.8866C4.03419 79.6752 3.5127 81.5439 3.51239 83.1251C3.51208 84.7003 4.03241 86.0324 5.13596 86.6694L5.33006 86.3331C4.39764 85.7949 3.90037 84.6327 3.90067 83.1252C3.90096 81.6236 4.3983 79.8211 5.40284 78.0807L5.06655 77.8866ZM5.13596 86.6694C5.27575 86.7501 5.42106 86.8173 5.57107 86.8713L5.70272 86.506C5.57407 86.4597 5.44969 86.4022 5.33006 86.3331L5.13596 86.6694ZM5.46596 86.5966L5.46585 86.5968L5.80773 86.7809L5.80783 86.7807L5.46596 86.5966ZM5.54266 86.8587L18.5955 94.0946L18.7838 93.755L5.73091 86.5191L5.54266 86.8587ZM18.8555 94.0258L26.3751 81.6823L26.0435 81.4803L18.5239 93.8238L18.8555 94.0258ZM26.3058 81.4128L13.139 73.8693L12.946 74.2062L26.1128 81.7497L26.3058 81.4128Z" fill="black"/>
<path fill-rule="evenodd" clip-rule="evenodd" d="M23.8528 79.9241C23.7922 79.8816 23.7296 79.8416 23.665 79.8043C21.629 78.6292 18.3273 80.5374 16.2904 84.0664C14.3031 87.5094 14.254 91.2232 16.1435 92.4934L16.1364 92.5057L33.02 101.728L40.6815 89.2425L23.8528 79.9241Z" fill="black"/>
<path d="M23.8528 79.9241L23.7412 80.083L23.7497 80.0889L23.7587 80.094L23.8528 79.9241ZM23.665 79.8043L23.5679 79.9724V79.9724L23.665 79.8043ZM16.2904 84.0664L16.1223 83.9693L16.2904 84.0664ZM16.1435 92.4934L16.3116 92.5905L16.4024 92.4335L16.2519 92.3323L16.1435 92.4934ZM16.1364 92.5057L15.9683 92.4086L15.8688 92.5808L16.0434 92.6761L16.1364 92.5057ZM33.02 101.728L32.927 101.898L33.089 101.987L33.1855 101.829L33.02 101.728ZM40.6815 89.2425L40.847 89.3441L40.9532 89.171L40.7756 89.0727L40.6815 89.2425ZM23.9644 79.7653C23.8992 79.7194 23.8317 79.6764 23.762 79.6362L23.5679 79.9724C23.6276 80.0069 23.6853 80.0437 23.7412 80.083L23.9644 79.7653ZM23.762 79.6362C22.6585 78.9992 21.2447 79.215 19.8809 80.0032C18.5119 80.7944 17.1546 82.1807 16.1223 83.9693L16.4585 84.1634C17.4631 82.423 18.7751 81.0908 20.0752 80.3394C21.3804 79.585 22.6355 79.4343 23.5679 79.9724L23.762 79.6362ZM16.1223 83.9693C15.115 85.7145 14.5942 87.5357 14.5691 89.0916C14.544 90.6414 15.0129 91.9673 16.0352 92.6545L16.2519 92.3323C15.3846 91.7493 14.9333 90.5832 14.9573 89.0978C14.9812 87.6185 15.4786 85.8613 16.4585 84.1634L16.1223 83.9693ZM15.9754 92.3963L15.9683 92.4086L16.3045 92.6029L16.3116 92.5905L15.9754 92.3963ZM16.0434 92.6761L32.927 101.898L33.1131 101.558L16.2295 92.3354L16.0434 92.6761ZM33.1855 101.829L40.847 89.3441L40.516 89.141L32.8546 101.626L33.1855 101.829ZM40.7756 89.0727L23.9468 79.7543L23.7587 80.094L40.5875 89.4124L40.7756 89.0727Z" fill="black"/>
<path fill-rule="evenodd" clip-rule="evenodd" d="M40.9409 89.3922C40.7659 89.2023 40.5661 89.0406 40.3416 88.911C38.3056 87.7359 35.0039 89.6441 32.967 93.1731C30.9301 96.7021 30.9293 100.516 32.9653 101.691C32.9844 101.702 33.0035 101.712 33.0228 101.723L33.0198 101.728L137.159 161.885L144.253 148.974L40.9409 89.3922Z" fill="#FF714E"/>
<path d="M40.9409 89.3922L40.7982 89.5238L40.8182 89.5456L40.8439 89.5604L40.9409 89.3922ZM40.3416 88.911L40.4386 88.7428V88.7428L40.3416 88.911ZM32.967 93.1731L33.1351 93.2701L32.967 93.1731ZM32.9653 101.691L33.0624 101.523L33.0624 101.523L32.9653 101.691ZM33.0228 101.723L33.1883 101.824L33.2954 101.65L33.1154 101.552L33.0228 101.723ZM33.0198 101.728L32.8543 101.626L32.75 101.796L32.9227 101.896L33.0198 101.728ZM137.159 161.885L137.062 162.053L137.234 162.152L137.329 161.978L137.159 161.885ZM144.253 148.974L144.423 149.067L144.515 148.9L144.35 148.805L144.253 148.974ZM41.0837 89.2606C40.8958 89.0568 40.6808 88.8826 40.4386 88.7428L40.2445 89.0791C40.4515 89.1986 40.636 89.3478 40.7982 89.5238L41.0837 89.2606ZM40.4386 88.7428C39.3351 88.1059 37.9213 88.3217 36.5575 89.1099C35.1885 89.9011 33.8312 91.2874 32.7989 93.076L33.1351 93.2701C34.1397 91.5297 35.4517 90.1974 36.7518 89.4461C38.057 88.6917 39.3121 88.541 40.2445 89.0791L40.4386 88.7428ZM32.7989 93.076C31.7665 94.8646 31.245 96.7334 31.2447 98.3146C31.2444 99.8898 31.7647 101.222 32.8683 101.859L33.0624 101.523C32.1299 100.984 31.6327 99.8222 31.633 98.3146C31.6333 96.813 32.1306 95.0105 33.1351 93.2701L32.7989 93.076ZM32.8683 101.859C32.8888 101.871 32.9094 101.882 32.9302 101.894L33.1154 101.552C33.0976 101.543 33.0799 101.533 33.0624 101.523L32.8683 101.859ZM33.1852 101.829L33.1883 101.824L32.8573 101.621L32.8543 101.626L33.1852 101.829ZM137.256 161.716L33.1169 101.56L32.9227 101.896L137.062 162.053L137.256 161.716ZM144.083 148.88L136.989 161.791L137.329 161.978L144.423 149.067L144.083 148.88ZM40.8439 89.5604L144.156 149.142L144.35 148.805L41.0379 89.224L40.8439 89.5604Z" fill="black"/>
<path fill-rule="evenodd" clip-rule="evenodd" d="M145.469 149.898C145.236 149.537 144.937 149.243 144.574 149.033C142.538 147.858 139.236 149.766 137.199 153.295C135.162 156.824 135.161 160.638 137.197 161.813C137.451 161.959 137.725 162.058 138.014 162.112L164.683 169.263L145.469 149.898Z" fill="#FFC0B0"/>
<path d="M145.469 149.898L145.306 150.004L145.317 150.021L145.332 150.035L145.469 149.898ZM144.574 149.033L144.671 148.865V148.865L144.574 149.033ZM137.199 153.295L137.367 153.392L137.199 153.295ZM137.197 161.813L137.294 161.645H137.294L137.197 161.813ZM138.014 162.112L138.064 161.924L138.057 161.922L138.049 161.921L138.014 162.112ZM164.683 169.263L164.633 169.45L165.328 169.636L164.821 169.126L164.683 169.263ZM145.632 149.793C145.384 149.408 145.063 149.091 144.671 148.865L144.477 149.201C144.811 149.394 145.088 149.666 145.306 150.004L145.632 149.793ZM144.671 148.865C143.567 148.228 142.153 148.444 140.789 149.232C139.421 150.023 138.063 151.409 137.031 153.198L137.367 153.392C138.372 151.652 139.684 150.32 140.984 149.568C142.289 148.814 143.544 148.663 144.477 149.201L144.671 148.865ZM137.031 153.198C135.998 154.987 135.477 156.855 135.477 158.437C135.476 160.012 135.997 161.344 137.1 161.981L137.294 161.645C136.362 161.106 135.865 159.944 135.865 158.437C135.865 156.935 136.363 155.133 137.367 153.392L137.031 153.198ZM137.1 161.981C137.374 162.139 137.669 162.245 137.978 162.302L138.049 161.921C137.781 161.871 137.528 161.78 137.294 161.645L137.1 161.981ZM164.734 169.075L138.064 161.924L137.963 162.299L164.633 169.45L164.734 169.075ZM145.332 150.035L164.545 169.399L164.821 169.126L145.607 149.761L145.332 150.035Z" fill="black"/>
<path d="M159.213 163.844L157.272 163.261L157.466 165.203L155.33 165.591L156.495 166.95L164.684 169.263L159.213 163.844Z" fill="#FF714E" stroke="black" stroke-width="0.388279"/>
<path d="M252.985 97.7694L243.86 99.848L246.772 95.0515L262.126 90.198L290.259 103.982L384.957 159.644C386.81 166.359 377.28 166.839 373.309 166.359C369.339 165.88 252.985 97.7694 252.985 97.7694Z" fill="black" stroke="black" stroke-width="0.388279"/>
<path d="M129.309 57.9387C130.955 54.0134 133.964 50.3585 138.825 47.3493C142.244 53.7666 144.206 59.554 145.953 64.7071C146.111 65.1732 146.268 65.6342 146.423 66.09C148.318 71.6459 150.094 76.4529 153.431 80.4198C160.117 88.3694 172.981 92.8541 205.199 93.7275C234.735 94.5282 253.448 78.6784 264.755 66.4149C267.165 63.8012 269.241 61.3481 271.012 59.2559C271.317 58.8946 271.614 58.5442 271.901 58.2055C273.864 55.8939 275.392 54.155 276.558 53.2609C277.147 52.8095 277.589 52.6174 277.914 52.6216C278.195 52.6253 278.462 52.7804 278.706 53.2712C278.955 53.7725 279.148 54.5704 279.277 55.7311C279.404 56.8857 279.466 58.3737 279.466 60.2385C279.466 66.0834 277.185 72.8358 274.653 79.273C274.039 80.8348 273.41 82.3754 272.798 83.8783L272.745 84.008C272.116 85.5512 271.504 87.0544 270.942 88.4959C269.833 91.3395 268.914 93.9582 268.443 96.1896C261.728 102.925 252.161 107.405 241.153 110.202C230.115 113.006 217.649 114.112 205.207 114.112C193.177 114.112 180.048 111.671 168.226 107.616C156.4 103.56 145.908 97.899 139.136 91.4779C134.366 86.9541 129.34 78.8909 128.023 70.4505C127.365 66.2351 127.634 61.9366 129.309 57.9387Z" fill="black" stroke="black" stroke-width="0.582419"/>
<path d="M135.858 55.3297C135.858 53.463 135.898 51.9582 135.987 50.7754C136.076 49.5878 136.214 48.7443 136.402 48.1896C136.596 47.6202 136.808 47.4529 136.977 47.4216C137.172 47.3853 137.486 47.4885 137.969 47.8778C138.914 48.6391 140.197 50.2295 141.932 52.4084C142.01 52.5058 142.088 52.6044 142.168 52.704C143.851 54.8181 145.922 57.4207 148.455 60.2497C159.067 72.1056 177.774 87.9421 210.109 88.8187C239.644 89.6194 258.357 73.7696 269.665 61.5061C272.075 58.8924 274.15 56.4393 275.921 54.3472C276.226 53.9859 276.523 53.6354 276.811 53.2967C278.774 50.9851 280.301 49.2462 281.467 48.3521C282.056 47.9007 282.499 47.7086 282.824 47.7128C283.104 47.7165 283.371 47.8716 283.615 48.3624C283.864 48.8638 284.057 49.6616 284.186 50.8224C284.314 51.9769 284.375 53.4649 284.375 55.3297C284.375 67.1325 283.305 77.7616 274.558 86.5752C261.092 100.145 234.979 109.203 210.117 109.203C186.042 109.203 159.423 99.4278 145.863 86.569C136.339 77.5384 135.858 67.7078 135.858 55.3297Z" fill="#6439F5" stroke="black" stroke-width="0.582419"/>
<path fill-rule="evenodd" clip-rule="evenodd" d="M275.46 58.5978C274.972 64.0999 271.922 69.142 267.068 73.4951C267.103 73.2154 267.134 72.9343 267.159 72.6521C268.92 52.787 243.68 34.3194 210.786 31.4035C181.835 28.8373 156.603 39.1723 149.768 55.2297C149.236 52.9126 149.059 50.551 149.27 48.1694C151.031 28.3043 179.125 14.5642 212.02 17.4801C244.915 20.3959 277.22 38.7327 275.46 58.5978Z" fill="black"/>
<mask id="path-29-inside-1_635_6847" fill="white">
<path fill-rule="evenodd" clip-rule="evenodd" d="M210.117 95.905C251.289 95.905 284.666 74.4359 284.666 47.9525C284.666 21.4691 251.289 0 210.117 0C168.944 0 135.567 21.4691 135.567 47.9525C135.567 74.4359 168.944 95.905 210.117 95.905ZM210.116 83.4801C243.14 83.4801 269.911 67.3131 269.911 47.3701C269.911 27.4271 243.14 11.2601 210.116 11.2601C177.092 11.2601 150.321 27.4271 150.321 47.3701C150.321 67.3131 177.092 83.4801 210.116 83.4801Z"/>
</mask>
<path fill-rule="evenodd" clip-rule="evenodd" d="M210.117 95.905C251.289 95.905 284.666 74.4359 284.666 47.9525C284.666 21.4691 251.289 0 210.117 0C168.944 0 135.567 21.4691 135.567 47.9525C135.567 74.4359 168.944 95.905 210.117 95.905ZM210.116 83.4801C243.14 83.4801 269.911 67.3131 269.911 47.3701C269.911 27.4271 243.14 11.2601 210.116 11.2601C177.092 11.2601 150.321 27.4271 150.321 47.3701C150.321 67.3131 177.092 83.4801 210.116 83.4801Z" fill="#B29CFA"/>
<path d="M284.084 47.9525C284.084 60.929 275.906 72.7575 262.516 81.3702C249.132 89.9789 230.608 95.3226 210.117 95.3226V96.4874C230.798 96.4874 249.548 91.0965 263.146 82.3499C276.738 73.6072 285.249 61.4594 285.249 47.9525H284.084ZM210.117 0.582419C230.608 0.582419 249.132 5.92607 262.516 14.5348C275.906 23.1475 284.084 34.976 284.084 47.9525H285.249C285.249 34.4456 276.738 22.2978 263.146 13.5551C249.548 4.80846 230.798 -0.582419 210.117 -0.582419V0.582419ZM136.149 47.9525C136.149 34.976 144.327 23.1475 157.717 14.5348C171.101 5.92607 189.625 0.582419 210.117 0.582419V-0.582419C189.435 -0.582419 170.685 4.80846 157.087 13.5551C143.495 22.2978 134.984 34.4456 134.984 47.9525H136.149ZM210.117 95.3226C189.625 95.3226 171.101 89.9789 157.717 81.3702C144.327 72.7575 136.149 60.929 136.149 47.9525H134.984C134.984 61.4594 143.495 73.6072 157.087 82.3499C170.685 91.0965 189.435 96.4874 210.117 96.4874V95.3226ZM269.329 47.3701C269.329 57.0585 262.823 65.9274 252.096 72.4051C241.381 78.8763 226.54 82.8976 210.116 82.8976V84.0625C226.716 84.0625 241.773 80.0004 252.699 73.4023C263.614 66.8108 270.493 57.6247 270.493 47.3701H269.329ZM210.116 11.8425C226.54 11.8425 241.381 15.8639 252.096 22.335C262.823 28.8128 269.329 37.6817 269.329 47.3701H270.493C270.493 37.1155 263.614 27.9294 252.699 21.3379C241.773 14.7398 226.716 10.6777 210.116 10.6777V11.8425ZM150.903 47.3701C150.903 37.6817 157.409 28.8128 168.136 22.335C178.851 15.8639 193.692 11.8425 210.116 11.8425V10.6777C193.516 10.6777 178.459 14.7398 167.534 21.3379C156.619 27.9294 149.739 37.1155 149.739 47.3701H150.903ZM210.116 82.8976C193.692 82.8976 178.851 78.8763 168.136 72.4051C157.409 65.9274 150.903 57.0585 150.903 47.3701H149.739C149.739 57.6247 156.619 66.8108 167.534 73.4023C178.459 80.0004 193.516 84.0625 210.116 84.0625V82.8976Z" fill="black" mask="url(#path-29-inside-1_635_6847)"/>
<path fill-rule="evenodd" clip-rule="evenodd" d="M269.913 47.37C269.913 49.7609 269.528 52.0976 268.794 54.3587C263.403 37.7606 239.182 25.2381 210.118 25.2381C181.053 25.2381 156.832 37.761 151.442 54.3594C150.708 52.0981 150.323 49.7612 150.323 47.37C150.323 27.427 177.094 11.26 210.118 11.26C243.142 11.26 269.913 27.427 269.913 47.37Z" fill="#6439F5"/>
<mask id="path-32-inside-2_635_6847" fill="white">
<path fill-rule="evenodd" clip-rule="evenodd" d="M266.511 83.4605C266.421 83.3906 266.326 83.3267 266.226 83.2691C264.19 82.0939 260.89 83.9984 258.856 87.5228C256.872 90.9612 256.825 94.6711 258.714 95.9413L258.692 95.9798L380.184 164.631L387.845 152.145L266.511 83.4605Z"/>
</mask>
<path fill-rule="evenodd" clip-rule="evenodd" d="M266.511 83.4605C266.421 83.3906 266.326 83.3267 266.226 83.2691C264.19 82.0939 260.89 83.9984 258.856 87.5228C256.872 90.9612 256.825 94.6711 258.714 95.9413L258.692 95.9798L380.184 164.631L387.845 152.145L266.511 83.4605Z" fill="#6439F5"/>
<path d="M266.511 83.4605L266.153 83.9205L266.187 83.9465L266.224 83.9673L266.511 83.4605ZM266.226 83.2691L265.935 83.7735L265.935 83.7735L266.226 83.2691ZM258.856 87.5228L258.352 87.2317L258.856 87.5228ZM258.714 95.9413L259.218 96.2327L259.49 95.7616L259.039 95.458L258.714 95.9413ZM258.692 95.9798L258.187 95.6884L257.893 96.1976L258.405 96.4868L258.692 95.9798ZM380.184 164.631L379.897 165.138L380.386 165.414L380.68 164.935L380.184 164.631ZM387.845 152.145L388.341 152.45L388.657 151.936L388.132 151.638L387.845 152.145ZM266.868 83.0005C266.757 82.9144 266.64 82.8356 266.517 82.7647L265.935 83.7735C266.011 83.8177 266.084 83.8668 266.153 83.9205L266.868 83.0005ZM266.517 82.7647C265.243 82.0291 263.671 82.3086 262.249 83.1292C260.812 83.9587 259.411 85.3971 258.352 87.2317L259.361 87.814C260.336 86.1242 261.601 84.8481 262.832 84.1381C264.077 83.4192 265.173 83.3339 265.935 83.7735L266.517 82.7647ZM258.352 87.2317C257.318 89.022 256.775 90.9051 256.75 92.536C256.725 94.1489 257.212 95.6333 258.389 96.4247L259.039 95.458C258.326 94.9791 257.892 93.9734 257.915 92.5542C257.937 91.153 258.409 89.4621 259.361 87.814L258.352 87.2317ZM258.21 95.65L258.187 95.6884L259.196 96.2712L259.218 96.2327L258.21 95.65ZM258.405 96.4868L379.897 165.138L380.47 164.123L258.978 95.4727L258.405 96.4868ZM380.68 164.935L388.341 152.45L387.349 151.841L379.687 164.326L380.68 164.935ZM388.132 151.638L266.798 82.9536L266.224 83.9673L387.558 152.652L388.132 151.638Z" fill="black" mask="url(#path-32-inside-2_635_6847)"/>
<path d="M387.554 152.233C388.431 152.739 388.915 153.851 388.908 155.336C388.902 156.812 388.408 158.593 387.412 160.319C386.416 162.045 385.121 163.364 383.846 164.107C382.562 164.856 381.358 164.993 380.481 164.487C379.604 163.981 379.12 162.869 379.127 161.384C379.133 159.908 379.627 158.127 380.623 156.401C381.619 154.675 382.914 153.356 384.189 152.612C385.472 151.864 386.676 151.726 387.554 152.233Z" fill="#9274F8" stroke="black" stroke-width="0.582419"/>
</svg>
